<svg width="795" height="799" viewBox="0 0 795 799" fill="none" xmlns="http://www.w3.org/2000/svg">
<path d="M80.2158 786L79.8125 784.961L79.7578 784.961C79.4069 785.403 79.0446 785.711 78.6709 785.884C78.3018 786.052 77.8187 786.137 77.2217 786.137C76.488 786.137 75.9092 785.927 75.4854 785.508C75.0661 785.089 74.8564 784.492 74.8564 783.717C74.8564 782.906 75.139 782.309 75.7041 781.926C76.2738 781.538 77.1305 781.324 78.2744 781.283L79.6006 781.242L79.6006 780.907C79.6006 780.132 79.2041 779.745 78.4111 779.745C77.8005 779.745 77.0827 779.93 76.2578 780.299L75.5674 778.891C76.4469 778.43 77.4222 778.2 78.4932 778.2C79.5186 778.2 80.3047 778.424 80.8516 778.87C81.3984 779.317 81.6719 779.996 81.6719 780.907L81.6719 786L80.2158 786ZM79.6006 782.459L78.7939 782.486C78.1878 782.505 77.7367 782.614 77.4404 782.814C77.1442 783.015 76.9961 783.32 76.9961 783.73C76.9961 784.318 77.3333 784.612 78.0078 784.612C78.4909 784.612 78.876 784.473 79.1631 784.195C79.4548 783.917 79.6006 783.548 79.6006 783.088L79.6006 782.459Z" fill="black"/>
<path d="M80.2158 24L79.8125 22.9609L79.7578 22.9609C79.4069 23.403 79.0446 23.7106 78.6709 23.8838C78.3018 24.0524 77.8187 24.1367 77.2217 24.1367C76.488 24.1367 75.9092 23.9271 75.4854 23.5078C75.0661 23.0885 74.8564 22.4915 74.8564 21.7168C74.8564 20.9056 75.139 20.3086 75.7041 19.9258C76.2738 19.5384 77.1305 19.3242 78.2744 19.2832L79.6006 19.2422L79.6006 18.9072C79.6006 18.1325 79.2041 17.7451 78.4111 17.7451C77.8005 17.7451 77.0827 17.9297 76.2578 18.2988L75.5674 16.8906C76.4469 16.4303 77.4222 16.2002 78.4932 16.2002C79.5186 16.2002 80.3047 16.4235 80.8516 16.8701C81.3984 17.3167 81.6719 17.9958 81.6719 18.9072L81.6719 24L80.2158 24ZM79.6006 20.459L78.7939 20.4863C78.1878 20.5046 77.7367 20.6139 77.4404 20.8145C77.1442 21.015 76.9961 21.3203 76.9961 21.7305C76.9961 22.3184 77.3333 22.6123 78.0078 22.6123C78.4909 22.6123 78.876 22.4733 79.1631 22.1953C79.4548 21.9173 79.6006 21.5482 79.6006 21.0879L79.6006 20.459Z" fill="black"/>
<path d="M170.416 778.214C171.318 778.214 172.025 778.567 172.535 779.273C173.046 779.975 173.301 780.939 173.301 782.165C173.301 783.427 173.036 784.405 172.508 785.098C171.984 785.79 171.268 786.137 170.361 786.137C169.464 786.137 168.759 785.811 168.249 785.159L168.105 785.159L167.757 786L166.164 786L166.164 775.363L168.249 775.363L168.249 777.838C168.249 778.152 168.222 778.656 168.167 779.349L168.249 779.349C168.737 778.592 169.459 778.214 170.416 778.214ZM169.746 779.882C169.231 779.882 168.855 780.041 168.618 780.36C168.381 780.675 168.258 781.197 168.249 781.926L168.249 782.151C168.249 782.972 168.37 783.56 168.611 783.915C168.857 784.271 169.245 784.448 169.773 784.448C170.202 784.448 170.541 784.252 170.792 783.86C171.047 783.464 171.175 782.89 171.175 782.138C171.175 781.386 171.047 780.823 170.792 780.449C170.537 780.071 170.188 779.882 169.746 779.882Z" fill="black"/>
<path d="M170.416 16.2139C171.318 16.2139 172.025 16.5671 172.535 17.2734C173.046 17.9753 173.301 18.9391 173.301 20.165C173.301 21.4274 173.036 22.4049 172.508 23.0977C171.984 23.7904 171.268 24.1367 170.361 24.1367C169.464 24.1367 168.759 23.8109 168.249 23.1592L168.105 23.1592L167.757 24L166.164 24L166.164 13.3633L168.249 13.3633L168.249 15.8379C168.249 16.1523 168.222 16.6559 168.167 17.3486L168.249 17.3486C168.737 16.5921 169.459 16.2139 170.416 16.2139ZM169.746 17.8818C169.231 17.8818 168.855 18.0413 168.618 18.3604C168.381 18.6748 168.258 19.1966 168.249 19.9258L168.249 20.1514C168.249 20.9717 168.37 21.5596 168.611 21.915C168.857 22.2705 169.245 22.4482 169.773 22.4482C170.202 22.4482 170.541 22.2523 170.792 21.8604C171.047 21.4639 171.175 20.8896 171.175 20.1377C171.175 19.3857 171.047 18.8229 170.792 18.4492C170.537 18.071 170.188 17.8818 169.746 17.8818Z" fill="black"/>
<path d="M261.095 786.137C258.716 786.137 257.526 784.831 257.526 782.22C257.526 780.921 257.85 779.93 258.497 779.246C259.144 778.558 260.072 778.214 261.279 778.214C262.163 778.214 262.956 778.387 263.658 778.733L263.043 780.347C262.715 780.215 262.41 780.107 262.127 780.025C261.844 779.939 261.562 779.896 261.279 779.896C260.195 779.896 259.652 780.666 259.652 782.206C259.652 783.701 260.195 784.448 261.279 784.448C261.68 784.448 262.052 784.396 262.394 784.291C262.735 784.182 263.077 784.013 263.419 783.785L263.419 785.569C263.082 785.784 262.74 785.932 262.394 786.014C262.052 786.096 261.619 786.137 261.095 786.137Z" fill="black"/>
<path d="M261.095 24.1367C258.716 24.1367 257.526 22.8311 257.526 20.2197C257.526 18.9209 257.85 17.9297 258.497 17.2461C259.144 16.5579 260.072 16.2139 261.279 16.2139C262.163 16.2139 262.956 16.387 263.658 16.7334L263.043 18.3467C262.715 18.2145 262.41 18.1074 262.127 18.0254C261.844 17.9388 261.562 17.8955 261.279 17.8955C260.195 17.8955 259.652 18.6657 259.652 20.2061C259.652 21.7008 260.195 22.4482 261.279 22.4482C261.68 22.4482 262.052 22.3958 262.394 22.291C262.735 22.1816 263.077 22.013 263.419 21.7852L263.419 23.5693C263.082 23.7835 262.74 23.9316 262.394 24.0137C262.052 24.0957 261.619 24.1367 261.095 24.1367Z" fill="black"/>
<path d="M346.584 786.137C345.686 786.137 344.98 785.788 344.465 785.091C343.954 784.394 343.699 783.427 343.699 782.192C343.699 780.939 343.959 779.964 344.479 779.267C345.003 778.565 345.723 778.214 346.639 778.214C347.6 778.214 348.334 778.588 348.84 779.335L348.908 779.335C348.803 778.765 348.751 778.257 348.751 777.811L348.751 775.363L350.843 775.363L350.843 786L349.243 786L348.84 785.009L348.751 785.009C348.277 785.761 347.555 786.137 346.584 786.137ZM347.315 784.476C347.849 784.476 348.238 784.321 348.484 784.011C348.735 783.701 348.872 783.174 348.895 782.432L348.895 782.206C348.895 781.386 348.767 780.798 348.512 780.442C348.261 780.087 347.851 779.909 347.281 779.909C346.816 779.909 346.454 780.107 346.194 780.504C345.939 780.896 345.812 781.468 345.812 782.22C345.812 782.972 345.941 783.537 346.201 783.915C346.461 784.289 346.832 784.476 347.315 784.476Z" fill="black"/>
<path d="M346.584 24.1367C345.686 24.1367 344.98 23.7881 344.465 23.0908C343.954 22.3936 343.699 21.4274 343.699 20.1924C343.699 18.9391 343.959 17.9639 344.479 17.2666C345.003 16.5648 345.723 16.2139 346.639 16.2139C347.6 16.2139 348.334 16.5876 348.84 17.335L348.908 17.335C348.803 16.7653 348.751 16.2572 348.751 15.8105L348.751 13.3633L350.843 13.3633L350.843 24L349.243 24L348.84 23.0088L348.751 23.0088C348.277 23.7607 347.555 24.1367 346.584 24.1367ZM347.315 22.4756C347.849 22.4756 348.238 22.3206 348.484 22.0107C348.735 21.7008 348.872 21.1745 348.895 20.4316L348.895 20.2061C348.895 19.3857 348.767 18.7979 348.512 18.4424C348.261 18.0869 347.851 17.9092 347.281 17.9092C346.816 17.9092 346.454 18.1074 346.194 18.5039C345.939 18.8958 345.812 19.4678 345.812 20.2197C345.812 20.9717 345.941 21.5368 346.201 21.915C346.461 22.2887 346.832 22.4756 347.315 22.4756Z" fill="black"/>
<path d="M442.623 779.697C442.181 779.697 441.835 779.839 441.584 780.121C441.333 780.399 441.19 780.796 441.153 781.311L444.079 781.311C444.07 780.796 443.936 780.399 443.676 780.121C443.416 779.839 443.065 779.697 442.623 779.697ZM442.917 786.137C441.687 786.137 440.725 785.797 440.032 785.118C439.34 784.439 438.993 783.478 438.993 782.233C438.993 780.953 439.312 779.964 439.95 779.267C440.593 778.565 441.479 778.214 442.609 778.214C443.689 778.214 444.53 778.521 445.132 779.137C445.733 779.752 446.034 780.602 446.034 781.687L446.034 782.698L441.105 782.698C441.128 783.291 441.304 783.753 441.632 784.086C441.96 784.419 442.42 784.585 443.013 784.585C443.473 784.585 443.908 784.537 444.318 784.441C444.729 784.346 445.157 784.193 445.604 783.983L445.604 785.597C445.239 785.779 444.849 785.913 444.435 786C444.02 786.091 443.514 786.137 442.917 786.137Z" fill="black"/>
<path d="M442.623 17.6973C442.181 17.6973 441.835 17.8385 441.584 18.1211C441.333 18.3991 441.19 18.7956 441.153 19.3105L444.079 19.3105C444.07 18.7956 443.936 18.3991 443.676 18.1211C443.416 17.8385 443.065 17.6973 442.623 17.6973ZM442.917 24.1367C441.687 24.1367 440.725 23.7972 440.032 23.1182C439.34 22.4391 438.993 21.4775 438.993 20.2334C438.993 18.9528 439.312 17.9639 439.95 17.2666C440.593 16.5648 441.479 16.2139 442.609 16.2139C443.689 16.2139 444.53 16.5215 445.132 17.1367C445.733 17.752 446.034 18.6019 446.034 19.6865L446.034 20.6982L441.105 20.6982C441.128 21.2907 441.304 21.7533 441.632 22.0859C441.96 22.4186 442.42 22.585 443.013 22.585C443.473 22.585 443.908 22.5371 444.318 22.4414C444.729 22.3457 445.157 22.193 445.604 21.9834L445.604 23.5967C445.239 23.779 444.849 23.9134 444.435 24C444.02 24.0911 443.514 24.1367 442.917 24.1367Z" fill="black"/>
<path d="M536.104 779.923L534.3 779.923L534.3 786L532.215 786L532.215 779.923L531.066 779.923L531.066 778.918L532.215 778.357L532.215 777.797C532.215 776.926 532.429 776.291 532.857 775.89C533.286 775.489 533.972 775.288 534.915 775.288C535.635 775.288 536.275 775.395 536.836 775.609L536.303 777.141C535.883 777.008 535.496 776.942 535.141 776.942C534.844 776.942 534.63 777.031 534.498 777.209C534.366 777.382 534.3 777.605 534.3 777.879L534.3 778.357L536.104 778.357L536.104 779.923Z" fill="black"/>
<path d="M536.104 17.9229L534.3 17.9229L534.3 24L532.215 24L532.215 17.9229L531.066 17.9229L531.066 16.918L532.215 16.3574L532.215 15.7969C532.215 14.9264 532.429 14.2907 532.857 13.8896C533.286 13.4886 533.972 13.2881 534.915 13.2881C535.635 13.2881 536.275 13.3952 536.836 13.6094L536.303 15.1406C535.883 15.0085 535.496 14.9424 535.141 14.9424C534.844 14.9424 534.63 15.0313 534.498 15.209C534.366 15.3822 534.3 15.6055 534.3 15.8789L534.3 16.3574L536.104 16.3574L536.104 17.9229Z" fill="black"/>
<path d="M628.287 778.357L628.287 779.417L627.091 779.725C627.31 780.066 627.419 780.449 627.419 780.873C627.419 781.693 627.132 782.334 626.558 782.794C625.988 783.25 625.195 783.478 624.179 783.478L623.803 783.457L623.495 783.423C623.281 783.587 623.174 783.769 623.174 783.97C623.174 784.271 623.557 784.421 624.322 784.421L625.621 784.421C626.46 784.421 627.098 784.601 627.535 784.961C627.977 785.321 628.198 785.85 628.198 786.547C628.198 787.44 627.824 788.133 627.077 788.625C626.334 789.117 625.266 789.363 623.871 789.363C622.805 789.363 621.989 789.176 621.424 788.803C620.863 788.434 620.583 787.914 620.583 787.244C620.583 786.784 620.727 786.399 621.014 786.089C621.301 785.779 621.722 785.558 622.278 785.426C622.064 785.335 621.877 785.187 621.718 784.981C621.558 784.772 621.478 784.551 621.478 784.318C621.478 784.027 621.563 783.785 621.731 783.594C621.9 783.398 622.144 783.206 622.463 783.02C622.062 782.846 621.743 782.568 621.506 782.186C621.273 781.803 621.157 781.352 621.157 780.832C621.157 779.998 621.428 779.353 621.971 778.897C622.513 778.442 623.288 778.214 624.295 778.214C624.509 778.214 624.762 778.234 625.054 778.275C625.35 778.312 625.539 778.339 625.621 778.357L628.287 778.357ZM622.388 787.08C622.388 787.367 622.524 787.593 622.798 787.757C623.076 787.921 623.463 788.003 623.96 788.003C624.707 788.003 625.293 787.9 625.717 787.695C626.141 787.49 626.352 787.21 626.352 786.854C626.352 786.567 626.227 786.369 625.977 786.26C625.726 786.15 625.338 786.096 624.814 786.096L623.734 786.096C623.352 786.096 623.03 786.185 622.77 786.362C622.515 786.545 622.388 786.784 622.388 787.08ZM623.146 780.859C623.146 781.274 623.24 781.602 623.427 781.844C623.618 782.085 623.907 782.206 624.295 782.206C624.687 782.206 624.974 782.085 625.156 781.844C625.338 781.602 625.43 781.274 625.43 780.859C625.43 779.939 625.051 779.479 624.295 779.479C623.529 779.479 623.146 779.939 623.146 780.859Z" fill="black"/>
<path d="M628.287 16.3574L628.287 17.417L627.091 17.7246C627.31 18.0664 627.419 18.4492 627.419 18.873C627.419 19.6934 627.132 20.3337 626.558 20.7939C625.988 21.2497 625.195 21.4775 624.179 21.4775L623.803 21.457L623.495 21.4229C623.281 21.5869 623.174 21.7692 623.174 21.9697C623.174 22.2705 623.557 22.4209 624.322 22.4209L625.621 22.4209C626.46 22.4209 627.098 22.6009 627.535 22.9609C627.977 23.321 628.198 23.8496 628.198 24.5469C628.198 25.4401 627.824 26.1328 627.077 26.625C626.334 27.1172 625.266 27.3633 623.871 27.3633C622.805 27.3633 621.989 27.1764 621.424 26.8027C620.863 26.4336 620.583 25.9141 620.583 25.2441C620.583 24.7839 620.727 24.3988 621.014 24.0889C621.301 23.779 621.722 23.5579 622.278 23.4258C622.064 23.3346 621.877 23.1865 621.718 22.9814C621.558 22.7718 621.478 22.5508 621.478 22.3184C621.478 22.0267 621.563 21.7852 621.731 21.5938C621.9 21.3978 622.144 21.2064 622.463 21.0195C622.062 20.8464 621.743 20.5684 621.506 20.1855C621.273 19.8027 621.157 19.3516 621.157 18.832C621.157 17.998 621.428 17.3532 621.971 16.8975C622.513 16.4417 623.288 16.2139 624.295 16.2139C624.509 16.2139 624.762 16.2344 625.054 16.2754C625.35 16.3118 625.539 16.3392 625.621 16.3574L628.287 16.3574ZM622.388 25.0801C622.388 25.3672 622.524 25.5928 622.798 25.7568C623.076 25.9209 623.463 26.0029 623.96 26.0029C624.707 26.0029 625.293 25.9004 625.717 25.6953C626.141 25.4902 626.352 25.21 626.352 24.8545C626.352 24.5674 626.227 24.3691 625.977 24.2598C625.726 24.1504 625.338 24.0957 624.814 24.0957L623.734 24.0957C623.352 24.0957 623.03 24.1846 622.77 24.3623C622.515 24.5446 622.388 24.7839 622.388 25.0801ZM623.146 18.8594C623.146 19.2741 623.24 19.6022 623.427 19.8438C623.618 20.0853 623.907 20.2061 624.295 20.2061C624.687 20.2061 624.974 20.0853 625.156 19.8438C625.338 19.6022 625.43 19.2741 625.43 18.8594C625.43 17.9388 625.051 17.4785 624.295 17.4785C623.529 17.4785 623.146 17.9388 623.146 18.8594Z" fill="black"/>
<path d="M719.048 786L716.963 786L716.963 781.536C716.963 780.433 716.553 779.882 715.732 779.882C715.149 779.882 714.727 780.08 714.468 780.477C714.208 780.873 714.078 781.516 714.078 782.404L714.078 786L711.993 786L711.993 775.363L714.078 775.363L714.078 777.53C714.078 777.699 714.062 778.095 714.03 778.72L713.982 779.335L714.092 779.335C714.557 778.588 715.295 778.214 716.307 778.214C717.204 778.214 717.886 778.455 718.351 778.938C718.815 779.422 719.048 780.114 719.048 781.017L719.048 786Z" fill="black"/>
<path d="M719.048 24L716.963 24L716.963 19.5361C716.963 18.4333 716.553 17.8818 715.732 17.8818C715.149 17.8818 714.727 18.0801 714.468 18.4766C714.208 18.873 714.078 19.5156 714.078 20.4043L714.078 24L711.993 24L711.993 13.3633L714.078 13.3633L714.078 15.5303C714.078 15.6989 714.062 16.0954 714.03 16.7197L713.982 17.335L714.092 17.335C714.557 16.5876 715.295 16.2139 716.307 16.2139C717.204 16.2139 717.886 16.4554 718.351 16.9385C718.815 17.4216 719.048 18.1143 719.048 19.0166L719.048 24Z" fill="black"/>
<path d="M781.413 77.8946C782.37 77.8959 783.14 78.1157 783.722 78.5541C784.31 78.9878 784.603 79.5738 784.602 80.3121C784.601 80.8225 784.459 81.2781 784.176 81.6787C783.893 82.0748 783.437 82.4296 782.808 82.7432C783.554 83.1453 784.089 83.5653 784.412 84.0033C784.74 84.4366 784.903 84.9131 784.902 85.4326C784.901 86.253 784.579 86.9133 783.936 87.4137C783.293 87.9096 782.447 88.1568 781.399 88.1553C780.305 88.1538 779.446 87.9202 778.822 87.4545C778.199 86.9888 777.888 86.3299 777.889 85.4776C777.889 84.908 778.041 84.4023 778.342 83.9607C778.648 83.5191 779.136 83.1301 779.806 82.7938C779.237 82.433 778.828 82.0473 778.578 81.6368C778.327 81.2263 778.203 80.7772 778.203 80.2896C778.204 79.5741 778.501 78.9957 779.095 78.5545C779.688 78.1133 780.46 77.8933 781.413 77.8946ZM779.844 85.3573C779.843 85.7492 779.98 86.0547 780.253 86.2739C780.526 86.493 780.899 86.6029 781.373 86.6035C781.898 86.6043 782.29 86.4932 782.55 86.2702C782.81 86.0427 782.94 85.7444 782.941 85.3752C782.941 85.0699 782.812 84.7849 782.552 84.5202C782.297 84.251 781.881 83.9656 781.302 83.664C780.331 84.1093 779.845 84.6737 779.844 85.3573ZM781.397 79.4395C781.037 79.439 780.745 79.532 780.522 79.7186C780.303 79.9006 780.193 80.1465 780.192 80.4564C780.192 80.7298 780.278 80.9761 780.451 81.195C780.629 81.4095 780.947 81.631 781.407 81.8595C781.854 81.6504 782.167 81.4367 782.345 81.2182C782.523 80.9997 782.612 80.7469 782.612 80.4597C782.613 80.1453 782.499 79.8968 782.272 79.7142C782.044 79.5316 781.752 79.44 781.397 79.4395Z" fill="black"/>
<path d="M14.4129 77.8946C15.3699 77.8959 16.1398 78.1157 16.7225 78.5541C17.3098 78.9878 17.603 79.5738 17.6019 80.3121C17.6012 80.8225 17.4593 81.2781 17.1762 81.6787C16.8931 82.0748 16.4369 82.4296 15.8076 82.7432C16.5544 83.1453 17.0893 83.5653 17.4123 84.0033C17.7398 84.4366 17.9032 84.9131 17.9025 85.4326C17.9013 86.253 17.5791 86.9133 16.9359 87.4137C16.2926 87.9096 15.4469 88.1568 14.3987 88.1553C13.305 88.1538 12.4462 87.9202 11.8225 87.4545C11.1988 86.9888 10.8876 86.3299 10.8887 85.4776C10.8895 84.908 11.0406 84.4023 11.342 83.9607C11.648 83.5191 12.1361 83.1301 12.8065 82.7938C12.2373 82.433 11.8277 82.0473 11.5776 81.6368C11.3276 81.2263 11.2029 80.7772 11.2035 80.2896C11.2045 79.5741 11.5015 78.9957 12.0946 78.5545C12.6877 78.1133 13.4604 77.8933 14.4129 77.8946ZM12.844 85.3573C12.8434 85.7492 12.9797 86.0547 13.2529 86.2739C13.526 86.493 13.8996 86.6029 14.3735 86.6035C14.8976 86.6043 15.2897 86.4932 15.5498 86.2702C15.8098 86.0427 15.9401 85.7444 15.9406 85.3752C15.9411 85.0699 15.8116 84.7849 15.5522 84.5202C15.2973 84.251 14.8807 83.9656 14.3024 83.664C13.3311 84.1093 12.8449 84.6737 12.844 85.3573ZM14.3971 79.4395C14.0371 79.439 13.7453 79.532 13.5217 79.7186C13.3027 79.9006 13.193 80.1465 13.1926 80.4564C13.1922 80.7298 13.2784 80.9761 13.4513 81.195C13.6287 81.4095 13.9474 81.631 14.4074 81.8595C14.8543 81.6504 15.1668 81.4367 15.3448 81.2182C15.5229 80.9997 15.6121 80.7469 15.6125 80.4597C15.6129 80.1453 15.4993 79.8968 15.2717 79.7142C15.0441 79.5316 14.7526 79.44 14.3971 79.4395Z" fill="black"/>
<path d="M778.819 179.015L782.583 170.817L777.655 170.81L777.657 169.033L784.828 169.043L784.826 170.369L781.034 179.018L778.819 179.015Z" fill="black"/>
<path d="M11.8191 179.015L15.5833 170.817L10.6546 170.81L10.6571 169.033L17.828 169.043L17.8261 170.369L14.0339 179.018L11.8191 179.015Z" fill="black"/>
<path d="M777.643 263.768C777.645 261.791 778.064 260.319 778.9 259.354C779.739 258.389 780.993 257.908 782.661 257.91C783.231 257.911 783.678 257.946 784.001 258.014L783.999 259.703C783.593 259.611 783.192 259.565 782.796 259.565C782.071 259.564 781.479 259.672 781.018 259.89C780.562 260.108 780.22 260.431 779.991 260.86C779.763 261.288 779.628 261.896 779.585 262.684L779.674 262.684C780.127 261.91 780.849 261.524 781.843 261.525C782.736 261.526 783.435 261.808 783.94 262.369C784.445 262.93 784.697 263.705 784.696 264.694C784.694 265.761 784.392 266.606 783.79 267.229C783.188 267.848 782.353 268.157 781.287 268.155C780.549 268.154 779.904 267.982 779.353 267.64C778.807 267.297 778.383 266.798 778.084 266.141C777.788 265.484 777.641 264.694 777.643 263.768ZM781.248 266.467C781.699 266.467 782.046 266.317 782.288 266.017C782.53 265.712 782.651 265.279 782.652 264.719C782.653 264.231 782.539 263.848 782.312 263.57C782.089 263.287 781.749 263.145 781.294 263.145C780.865 263.144 780.498 263.282 780.193 263.56C779.891 263.838 779.741 264.161 779.74 264.53C779.739 265.072 779.88 265.531 780.162 265.905C780.449 266.279 780.811 266.466 781.248 266.467Z" fill="black"/>
<path d="M10.6426 263.768C10.6453 261.791 11.0643 260.319 11.8996 259.354C12.7395 258.389 13.9934 257.908 15.6614 257.91C16.2311 257.911 16.6776 257.946 17.0011 258.014L16.9988 259.703C16.5933 259.611 16.1923 259.565 15.7958 259.565C15.0712 259.564 14.4786 259.672 14.018 259.89C13.562 260.108 13.2198 260.431 12.9913 260.86C12.7629 261.288 12.6276 261.896 12.5855 262.684L12.6743 262.684C13.1266 261.91 13.8494 261.524 14.8429 261.525C15.7362 261.526 16.4353 261.808 16.9404 262.369C17.4455 262.93 17.6973 263.705 17.696 264.694C17.6945 265.761 17.3926 266.606 16.7901 267.229C16.1877 267.848 15.3533 268.157 14.2869 268.155C13.5486 268.154 12.904 267.982 12.353 267.64C11.8066 267.297 11.3835 266.798 11.0836 266.141C10.7883 265.484 10.6413 264.694 10.6426 263.768ZM14.2482 266.467C14.6994 266.467 15.046 266.317 15.2879 266.017C15.5299 265.712 15.6512 265.279 15.652 264.719C15.6527 264.231 15.5393 263.848 15.3118 263.57C15.0889 263.287 14.7496 263.145 14.2938 263.145C13.8654 263.144 13.4984 263.282 13.1927 263.56C12.8915 263.838 12.7407 264.161 12.7401 264.53C12.7394 265.072 12.88 265.531 13.1621 265.905C13.4487 266.279 13.8107 266.466 14.2482 266.467Z" fill="black"/>
<path d="M781.228 350.634C782.194 350.635 782.961 350.907 783.53 351.451C784.104 351.994 784.39 352.737 784.389 353.68C784.387 354.797 784.042 355.655 783.353 356.256C782.664 356.857 781.679 357.156 780.398 357.154C779.286 357.153 778.389 356.971 777.706 356.61L777.708 354.785C778.068 354.977 778.487 355.135 778.965 355.259C779.444 355.378 779.897 355.438 780.326 355.438C781.615 355.44 782.261 354.912 782.262 353.855C782.264 352.848 781.597 352.343 780.262 352.342C780.02 352.341 779.753 352.366 779.462 352.416C779.17 352.461 778.933 352.511 778.75 352.565L777.91 352.113L778.293 347.02L783.714 347.028L783.712 348.819L780.143 348.814L779.956 350.776L780.195 350.728C780.473 350.665 780.818 350.633 781.228 350.634Z" fill="black"/>
<path d="M14.2278 350.634C15.1939 350.635 15.9615 350.907 16.5304 351.451C17.1038 351.994 17.3899 352.737 17.3886 353.68C17.3871 354.797 17.0418 355.655 16.3528 356.256C15.6639 356.857 14.6791 357.156 13.3985 357.154C12.2865 357.153 11.389 356.971 10.7059 356.61L10.7084 354.785C11.0681 354.977 11.4872 355.135 11.9655 355.259C12.4439 355.378 12.8973 355.438 13.3256 355.438C14.6154 355.44 15.2609 354.912 15.2624 353.855C15.2638 352.848 14.5969 352.343 13.2616 352.342C13.02 352.341 12.7534 352.366 12.4617 352.416C12.1699 352.461 11.9329 352.511 11.7505 352.565L10.9103 352.113L11.2933 347.02L16.7142 347.028L16.7117 348.819L13.1434 348.814L12.9561 350.776L13.1954 350.728C13.4735 350.665 13.8176 350.633 14.2278 350.634Z" fill="black"/>
<path d="M784.674 443.952L783.471 443.951L783.468 446.022L781.403 446.019L781.406 443.948L777.141 443.942L777.143 442.472L781.533 436.025L783.482 436.028L783.473 442.31L784.676 442.312L784.674 443.952ZM781.409 442.307L781.411 440.612C781.411 440.329 781.423 439.919 781.447 439.381C781.47 438.844 781.489 438.531 781.503 438.445L781.448 438.445C781.279 438.818 781.076 439.183 780.838 439.538L779.002 442.304L781.409 442.307Z" fill="black"/>
<path d="M17.674 443.952L16.4709 443.951L16.468 446.022L14.4035 446.019L14.4064 443.948L10.1408 443.942L10.1428 442.472L14.5336 436.025L16.4818 436.028L16.4731 442.31L17.6762 442.312L17.674 443.952ZM14.4087 442.307L14.411 440.612C14.4114 440.329 14.4234 439.919 14.4469 439.381C14.4704 438.844 14.4891 438.531 14.5029 438.445L14.4482 438.445C14.279 438.818 14.0757 439.183 13.8383 439.538L12.0024 442.304L14.4087 442.307Z" fill="black"/>
<path d="M783.943 527.264C783.943 527.888 783.753 528.419 783.374 528.856C782.995 529.293 782.464 529.593 781.78 529.756L781.78 529.797C782.586 529.898 783.197 530.145 783.611 530.538C784.025 530.926 784.232 531.45 784.231 532.111C784.229 533.072 783.88 533.822 783.182 534.358C782.484 534.891 781.488 535.156 780.193 535.154C779.109 535.153 778.147 534.971 777.309 534.61L777.312 532.812C777.699 533.009 778.125 533.169 778.589 533.293C779.054 533.416 779.514 533.478 779.97 533.479C780.667 533.48 781.182 533.362 781.515 533.126C781.848 532.889 782.015 532.509 782.016 531.985C782.017 531.515 781.826 531.182 781.443 530.986C781.061 530.789 780.45 530.691 779.612 530.689L778.853 530.688L778.855 529.068L779.628 529.069C780.402 529.07 780.968 528.971 781.323 528.771C781.684 528.566 781.864 528.218 781.865 527.726C781.866 526.969 781.392 526.59 780.444 526.589C780.116 526.589 779.781 526.643 779.439 526.752C779.102 526.861 778.726 527.049 778.311 527.318L777.335 525.86C778.247 525.205 779.335 524.879 780.597 524.88C781.632 524.882 782.447 525.092 783.044 525.513C783.645 525.933 783.945 526.516 783.943 527.264Z" fill="black"/>
<path d="M16.9436 527.264C16.9427 527.888 16.7528 528.419 16.374 528.856C15.9951 529.293 15.4638 529.593 14.78 529.756L14.7799 529.797C15.5864 529.898 16.1967 530.145 16.6109 530.538C17.0251 530.926 17.2317 531.45 17.2308 532.111C17.2295 533.072 16.8798 533.822 16.1818 534.358C15.4838 534.891 14.4877 535.156 13.1934 535.154C12.1088 535.153 11.1474 534.971 10.3094 534.61L10.3119 532.812C10.699 533.009 11.1248 533.169 11.5895 533.293C12.0542 533.416 12.5144 533.478 12.9701 533.479C13.6674 533.48 14.1825 533.362 14.5155 533.126C14.8485 532.889 15.0154 532.509 15.0161 531.985C15.0168 531.515 14.8258 531.182 14.4433 530.986C14.0608 530.789 13.4502 530.691 12.6117 530.689L11.8529 530.688L11.8551 529.068L12.6276 529.069C13.4023 529.07 13.9676 528.971 14.3233 528.771C14.6836 528.566 14.8641 528.218 14.8648 527.726C14.8658 526.969 14.3924 526.59 13.4445 526.589C13.1164 526.589 12.7813 526.643 12.4394 526.752C12.102 526.861 11.7257 527.049 11.3107 527.318L10.3351 525.86C11.2475 525.205 12.3349 524.879 13.5972 524.88C14.6317 524.882 15.4472 525.092 16.0436 525.513C16.6446 525.933 16.9446 526.516 16.9436 527.264Z" fill="black"/>
<path d="M784.2 624.023L777.213 624.013L777.215 622.544L779.728 620.011C780.472 619.251 780.958 618.725 781.186 618.434C781.414 618.138 781.579 617.865 781.679 617.614C781.78 617.364 781.83 617.104 781.831 616.835C781.831 616.434 781.72 616.135 781.497 615.939C781.278 615.743 780.985 615.645 780.615 615.644C780.228 615.644 779.852 615.732 779.487 615.909C779.122 616.086 778.741 616.339 778.345 616.666L777.198 615.304C777.691 614.886 778.099 614.59 778.423 614.417C778.747 614.245 779.1 614.113 779.483 614.022C779.866 613.927 780.294 613.88 780.768 613.881C781.393 613.881 781.944 613.996 782.422 614.225C782.9 614.453 783.271 614.773 783.535 615.183C783.799 615.594 783.93 616.063 783.93 616.592C783.929 617.052 783.846 617.485 783.682 617.89C783.522 618.291 783.27 618.703 782.928 619.127C782.59 619.55 781.992 620.153 781.135 620.936L779.848 622.144L779.848 622.24L784.202 622.246L784.2 624.023Z" fill="black"/>
<path d="M17.1997 624.023L10.2134 624.013L10.2154 622.544L12.7277 620.011C13.4716 619.251 13.9576 618.725 14.1859 618.434C14.4142 618.138 14.5786 617.865 14.6792 617.614C14.7798 617.364 14.8303 617.104 14.8307 616.835C14.8313 616.434 14.72 616.135 14.497 615.939C14.2785 615.743 13.9847 615.645 13.6156 615.644C13.2282 615.644 12.8521 615.732 12.4873 615.909C12.1224 616.086 11.7415 616.339 11.3446 616.666L10.198 615.304C10.6908 614.886 11.0991 614.59 11.4229 614.417C11.7467 614.245 12.1001 614.113 12.483 614.022C12.866 613.927 13.2944 613.88 13.7684 613.881C14.3927 613.881 14.944 613.996 15.4222 614.225C15.9004 614.453 16.2714 614.773 16.5351 615.183C16.7989 615.594 16.9304 616.063 16.9297 616.592C16.929 617.052 16.8464 617.485 16.6818 617.89C16.5217 618.291 16.2705 618.703 15.9281 619.127C15.5903 619.55 14.9925 620.153 14.1346 620.936L12.8478 622.144L12.8477 622.24L17.2021 622.246L17.1997 624.023Z" fill="black"/>
<path d="M782.313 713.02L780.201 713.018L780.209 707.234L780.231 706.284L780.266 705.245C779.915 705.596 779.671 705.825 779.534 705.935L778.384 706.856L777.367 705.583L780.591 703.024L782.327 703.026L782.313 713.02Z" fill="black"/>
<path d="M15.3132 713.02L13.2009 713.018L13.2089 707.234L13.2307 706.284L13.2663 705.245C12.9149 705.596 12.6708 705.825 12.5339 705.935L11.3842 706.856L10.3674 705.583L13.5907 703.024L15.327 703.026L15.3132 713.02Z" fill="black"/>
</svg>
