<svg width="48" height="48" viewBox="0 0 48 48" fill="none" xmlns="http://www.w3.org/2000/svg">
<circle cx="24" cy="24" r="22.5" fill="#FFCF70" stroke="#E27D5F" stroke-width="3"/>
<path d="M13.0146 34.9274L13.6404 34.0949C15.2047 31.9738 15.0297 27.2013 14.9555 25.8226L14.9183 25.2605H19.2984L19.2507 25.8226C19.1606 27.2013 18.9909 31.9738 20.5499 34.0949L21.1756 34.938L13.0146 34.9274Z" fill="white"/>
<path d="M11.7048 34.9275H22.4854V36.3698H11.7048V34.9275Z" fill="white"/>
<path d="M14.2715 23.8129H19.9242V25.2552H14.2715V23.8129Z" fill="white"/>
<path d="M10.9202 36.3699H23.2703V38.4486H10.9202V36.3699Z" fill="#E27D5F"/>
<path d="M15.3902 22.3705L15.3425 21.8933C15.2294 20.7459 14.7303 19.6709 13.9267 18.8442L13.635 18.5472L13.8577 18.192C14.4096 17.2904 15.3097 16.657 16.3447 16.442C16.3447 16.442 16.4296 15.4504 16.4508 15.1429C16.244 15.1429 16.0425 15.18 15.8516 15.2065L15.2471 15.2966V13.7058L15.8569 13.796C16.0513 13.8243 16.2528 13.8455 16.4614 13.8596C16.4614 13.6475 16.4243 13.4513 16.3978 13.2551L16.3076 12.6453H17.8984L17.8083 13.2551C17.7818 13.4513 17.7553 13.6475 17.7447 13.8543C17.9727 13.8543 18.1795 13.8119 18.3545 13.7854L18.959 13.7005V15.2913L18.3545 15.2065C18.1795 15.2065 17.978 15.1588 17.7553 15.1429C17.7818 15.4982 17.8242 16.0019 17.8613 16.4314C18.8958 16.6478 19.7944 17.2833 20.343 18.1867L20.5657 18.5419L20.2741 18.8389C19.4657 19.6671 18.9643 20.7466 18.8529 21.8986L18.8052 22.3758L15.3902 22.3705Z" fill="white"/>
<path d="M13.5024 22.3705H20.6877V23.8128H13.5024V22.3705Z" fill="#E27D5F"/>
<path d="M37.3545 19.4116C37.3545 11.9453 33.2236 8 25.4126 8C21.6477 8 18.519 9.45826 16.5782 12.115H16.2654C15.9727 12.1063 15.7283 12.3367 15.7198 12.6295C15.7184 12.6776 15.7235 12.7258 15.7351 12.7725C15.7722 12.9316 15.8093 13.0907 15.8358 13.255C15.6662 13.255 15.5071 13.1967 15.348 13.1543C15.0637 13.0839 14.7762 13.2572 14.7058 13.5415C14.6942 13.5883 14.689 13.6364 14.6904 13.6846V15.339C14.6818 15.6317 14.9122 15.8761 15.2049 15.8846C15.2531 15.886 15.3013 15.8809 15.348 15.8693C15.5071 15.8269 15.6768 15.7951 15.8464 15.7686V16.0443C14.658 16.4172 13.6818 17.274 13.1579 18.404C13.0671 18.6243 13.1344 18.878 13.3223 19.0245C14.1494 19.7546 14.6765 20.7654 14.8018 21.8614H13.5026C13.2098 21.8614 12.9723 22.0989 12.9723 22.3917V23.8341C12.9723 24.1269 13.2098 24.3644 13.5026 24.3644H13.7412V25.2764C13.7412 25.5693 13.9787 25.8067 14.2715 25.8067H14.4253C14.5897 28.299 14.4995 33.5063 12.4845 34.4184H11.705C11.4121 34.4184 11.1747 34.6558 11.1747 34.9487V35.8608H10.9202C10.6273 35.8608 10.3899 36.0982 10.3899 36.391V38.4697C10.3899 38.7626 10.6273 39 10.9202 39H23.2703C23.5632 39 23.8006 38.7626 23.8006 38.4697V36.3698C23.8006 36.077 23.5632 35.8395 23.2703 35.8395H23.0158V34.9275C23.0158 34.6346 22.7784 34.3972 22.4855 34.3972H21.7166C19.7281 33.4798 19.622 28.2619 19.7864 25.7855H19.9243C20.2171 25.7855 20.4546 25.5481 20.4546 25.2552V24.3431H20.6932C20.986 24.3431 21.2235 24.1057 21.2235 23.8129V22.3705C21.2235 22.0777 20.986 21.8402 20.6932 21.8402H19.394C19.5205 20.746 20.0476 19.7374 20.8735 19.0086C21.0639 18.8615 21.1314 18.6045 21.0379 18.3828C20.5145 17.2523 19.5382 16.3953 18.3494 16.0231C18.3494 15.9329 18.3494 15.8428 18.3494 15.7527C18.6569 15.8004 18.8425 15.8428 18.8478 15.8428C19.1321 15.9132 19.4196 15.7399 19.49 15.4556C19.5016 15.4088 19.5068 15.3606 19.5054 15.3125V13.674C19.514 13.3813 19.2836 13.1369 18.9909 13.1284C18.9427 13.127 18.8945 13.1321 18.8478 13.1437C18.8478 13.1437 18.6622 13.1861 18.3653 13.2338C18.3653 13.0694 18.4236 12.9104 18.4607 12.7566C18.531 12.4723 18.3576 12.1848 18.0733 12.1145C18.0352 12.1051 17.9962 12.0999 17.9569 12.099C19.7228 10.0946 22.284 9.04465 25.4392 9.04465C32.6615 9.04465 36.3204 12.5286 36.3204 19.3957C36.3916 20.336 36.61 21.2592 36.9674 22.1319C37.3704 23.3144 37.7893 24.534 37.4446 25.3135C37.3863 25.4514 37.0522 25.4514 36.5962 25.4461C35.9553 25.3528 35.304 25.5252 34.7932 25.9234C34.1463 26.565 34.1198 27.5142 34.0933 28.4528C34.0933 29.28 34.0456 30.0436 33.5895 30.4148C32.7146 31.0883 31.0495 31.3958 28.5519 31.3587C28.259 31.3587 28.0216 31.5961 28.0216 31.889L27.9739 36.5342C27.9739 36.8271 28.2113 37.0645 28.5042 37.0645C28.797 37.0645 29.0344 36.8271 29.0344 36.5342L29.0769 32.4193C30.779 32.4193 32.9479 32.2443 34.2418 31.2527C35.069 30.6216 35.1061 29.4974 35.1061 28.5058C35.1061 27.7528 35.1485 27.0423 35.4932 26.7029C35.6788 26.5173 36.1136 26.5226 36.5538 26.5332C37.1848 26.5332 38.0438 26.5332 38.3885 25.7643C38.9188 24.5924 38.3885 23.1765 37.9431 21.8031C37.6303 21.0392 37.432 20.2334 37.3545 19.4116ZM22.74 36.9107V37.9288H11.4504V36.9001L22.74 36.9107ZM21.5946 35.4684H21.9552V35.8502H12.2353V35.4684H21.6H21.5946ZM20.1205 34.4078H14.0647C15.7086 32.1859 15.5813 27.5142 15.4699 25.7961H18.7205C18.6092 27.5142 18.4819 32.1753 20.1258 34.3972L20.1205 34.4078ZM14.8177 24.7355V24.3537H19.4099V24.7355H14.8018H14.8177ZM20.1788 22.9061V23.2879H14.0329V22.9061H20.1576H20.1788ZM18.4448 14.3156V14.7027C18.2645 14.7027 18.0471 14.6497 17.8138 14.6338C17.6583 14.6209 17.5051 14.6772 17.3949 14.7875C17.2845 14.8978 17.2282 15.051 17.2411 15.2065C17.2676 15.5618 17.31 16.0708 17.3471 16.5003C17.3684 16.7343 17.541 16.9263 17.7714 16.9723C18.6561 17.1632 19.4232 17.7098 19.8925 18.4836C18.9953 19.3929 18.4343 20.5804 18.3016 21.8508H15.8677C15.7346 20.5805 15.1737 19.3931 14.2768 18.4836C14.747 17.7106 15.5138 17.1643 16.3979 16.9723C16.63 16.9257 16.8031 16.7309 16.8222 16.495C16.8593 16.0655 16.9017 15.5511 16.9282 15.1959C16.9395 15.0422 16.8833 14.8912 16.7744 14.7822C16.6655 14.6733 16.5145 14.6172 16.3608 14.6285C16.1381 14.6285 15.926 14.6656 15.7245 14.6974V14.3156C15.9331 14.3474 16.1487 14.3704 16.3714 14.3845C16.6635 14.4058 16.9175 14.1863 16.9388 13.8942C16.9407 13.8685 16.9407 13.8428 16.9388 13.8171C16.9388 13.5944 16.9017 13.377 16.8699 13.1702H17.2411C17.2093 13.377 17.188 13.5891 17.1721 13.8118C17.1609 13.9655 17.217 14.1165 17.3259 14.2255C17.4349 14.3344 17.5859 14.3905 17.7395 14.3792C18.0259 14.358 18.238 14.3315 18.4236 14.3103L18.4448 14.3156Z" fill="#35231A"/>
</svg>
